<svg width="29" height="29" viewBox="0 0 29 29" fill="none" xmlns="http://www.w3.org/2000/svg">
<path d="M14.3088 5.53323C16.359 5.50169 18.3417 6.26549 19.8409 7.66435L23.8789 3.71579C21.2882 1.28824 17.8588 -0.0428941 14.3088 0.00111868C11.6563 0.000505782 9.05597 0.737774 6.79854 2.13047C4.54111 3.52317 2.71561 5.51639 1.52618 7.88723L6.15301 11.4795C6.71876 9.75923 7.81022 8.25999 9.27348 7.19315C10.7367 6.12632 12.498 5.54572 14.3088 5.53323Z" fill="#EA4335"/>
<path d="M28.0451 14.6276C28.0619 13.644 27.9603 12.6619 27.7424 11.7026H14.309V17.0132H22.1951C22.0455 17.9443 21.7092 18.8355 21.2063 19.6332C20.7034 20.431 20.0443 21.1187 19.2688 21.6552L23.7842 25.1525C25.1914 23.7939 26.2981 22.1552 27.0327 20.3423C27.7673 18.5294 28.1136 16.5826 28.0492 14.6276H28.0451Z" fill="#4285F4"/>
<path d="M6.16952 17.1392C5.85668 16.2284 5.6954 15.2723 5.69211 14.3092C5.69782 13.3477 5.85332 12.3929 6.15301 11.4792L1.52618 7.88696C0.522657 9.87932 -6.10352e-05 12.0791 -6.10352e-05 14.3099C-6.10352e-05 16.5407 0.522657 18.7405 1.52618 20.7328L6.16952 17.1392Z" fill="#FBBC05"/>
<path d="M14.309 28.6178C17.7943 28.7164 21.185 27.4762 23.7842 25.1522L19.2688 21.6549C17.8047 22.6364 16.0709 23.1366 14.309 23.0857C12.4997 23.0749 10.7398 22.4947 9.2788 21.4274C7.81783 20.3601 6.73004 18.8598 6.16974 17.1395L1.54291 20.7331C2.72912 23.1028 4.55164 25.0956 6.80634 26.4882C9.06105 27.8808 11.6589 28.6182 14.309 28.6178Z" fill="#34A853"/>
</svg>
