<svg width="24" height="25" viewBox="0 0 24 25" fill="none" xmlns="http://www.w3.org/2000/svg">
<path d="M11.969 0.33197C8.82485 0.33197 5.80943 1.58102 3.58618 3.80426C1.36294 6.0275 0.114014 9.04287 0.114014 12.187C0.114014 15.3312 1.36294 18.3465 3.58618 20.5698C5.80943 22.793 8.82485 24.042 11.969 24.042C15.1131 24.042 18.1286 22.793 20.3518 20.5698C22.5751 18.3465 23.824 15.3312 23.824 12.187C23.824 9.04287 22.5751 6.0275 20.3518 3.80426C18.1286 1.58102 15.1131 0.33197 11.969 0.33197V0.33197ZM16.4031 8.67999L14.7161 14.423C14.6811 14.5429 14.6163 14.6521 14.5281 14.7405C14.4398 14.829 14.3308 14.8938 14.2109 14.929L8.46289 16.621C8.3333 16.6592 8.19601 16.6616 8.06519 16.6278C7.93437 16.594 7.81513 16.5255 7.72021 16.4293C7.6253 16.3332 7.55819 16.213 7.52612 16.0818C7.49405 15.9505 7.4982 15.8131 7.53809 15.684L9.29395 10.001C9.32976 9.88487 9.39333 9.77928 9.47925 9.69336C9.56517 9.60744 9.671 9.54381 9.78711 9.508L15.4661 7.75702C15.5949 7.71733 15.732 7.71324 15.863 7.74524C15.994 7.77724 16.1139 7.84408 16.21 7.93872C16.306 8.03336 16.3747 8.15227 16.4087 8.28278C16.4427 8.41328 16.4408 8.55053 16.4031 8.67999V8.67999Z" fill="#FE724C"/>
</svg>
