<svg width="21" height="25" viewBox="0 0 21 25" fill="none" xmlns="http://www.w3.org/2000/svg">
<path d="M19.938 12.473C19.4249 11.8713 19.0106 11.1917 18.7109 10.4599C18.4856 9.89025 18.3719 9.28264 18.376 8.67001V8.44894C18.376 6.34419 17.5399 4.32566 16.0516 2.83737C14.5633 1.34908 12.5447 0.513031 10.4399 0.513031C8.33464 0.513031 6.31568 1.34932 4.82702 2.83798C3.33835 4.32665 2.50194 6.34573 2.50194 8.45102V8.67404C2.50609 9.28324 2.39303 9.88745 2.16893 10.4539C1.86912 11.1877 1.45424 11.8689 0.93993 12.472C0.635143 12.9809 0.433776 13.5449 0.347279 14.1317C0.260782 14.7185 0.290901 15.3166 0.435902 15.8918C0.580903 16.467 0.837892 17.0079 1.19225 17.4836C1.54661 17.9593 1.99136 18.3605 2.50097 18.664C2.50669 18.6687 2.51314 18.6724 2.52001 18.675L2.57396 18.706C2.70579 18.7751 2.84206 18.8351 2.98192 18.886C3.03592 18.907 3.09695 18.929 3.16295 18.952C3.35291 19.0226 3.54698 19.0817 3.74401 19.129C3.78201 19.137 3.81892 19.148 3.85692 19.153H3.86498L4.09203 19.207C4.25103 19.243 4.42297 19.2779 4.60997 19.3139L4.90197 19.3659C5.10197 19.3999 5.32297 19.434 5.55797 19.466C5.79297 19.498 6.04398 19.529 6.31298 19.557C7.68371 19.6934 9.06048 19.7601 10.438 19.7569C11.238 19.7569 11.96 19.745 12.615 19.717C13.76 19.667 14.692 19.577 15.447 19.469C15.77 19.423 16.062 19.369 16.322 19.322C17.0414 19.2322 17.7377 19.0086 18.375 18.6629C18.8846 18.3596 19.3294 17.9588 19.6838 17.4834C20.0383 17.0079 20.2955 16.4672 20.4407 15.8922C20.5858 15.3172 20.6161 14.7193 20.5299 14.1325C20.4436 13.5458 20.2425 12.9819 19.938 12.473Z" fill="#D3D1D8"/>
<path d="M13.541 21.44C12.552 21.0682 11.4956 20.9093 10.441 20.9739C9.38641 20.9094 8.33008 21.0683 7.34105 21.44C7.18463 21.5323 7.06027 21.6704 6.98497 21.8357C6.90967 22.001 6.88704 22.1854 6.92003 22.364C7.08574 22.8722 7.38783 23.325 7.79344 23.6732C8.19905 24.0213 8.69252 24.2513 9.21995 24.338C10.0215 24.5552 10.8664 24.5552 11.668 24.338C12.1955 24.2515 12.6891 24.0215 13.0947 23.6734C13.5004 23.3252 13.8025 22.8723 13.968 22.364C14.0006 22.1848 13.977 21.9998 13.9006 21.8345C13.8242 21.6691 13.6986 21.5313 13.541 21.44Z" fill="#D3D1D8"/>
</svg>
