<svg width="26" height="26" viewBox="0 0 26 26" fill="none" xmlns="http://www.w3.org/2000/svg">
<circle cx="13" cy="13" r="13" fill="white"/>
<path d="M17.9708 7.28862L17.9708 7.28863L17.9689 7.28644C17.5675 6.83282 16.9041 6.75815 16.4355 7.09543L16.4351 7.09575C15.937 7.45319 15.768 8.1167 16.0466 8.6684L16.048 8.67113C16.1099 8.79599 16.2099 8.92304 16.3295 9.04251L16.3312 9.04429C17.7677 10.4982 18.3446 12.2735 17.8341 14.3294L17.8341 14.3296C17.3466 16.2894 16.0916 17.5916 14.2444 18.1774L14.2439 18.1775C12.4432 18.7457 10.7473 18.3828 9.29385 17.1611C8.04104 16.1107 7.39943 14.6968 7.37738 13.0317C7.35838 11.703 7.8042 10.528 8.62331 9.52523C8.69458 9.43742 8.77424 9.36627 8.83162 9.31547C8.83664 9.31102 8.8415 9.30672 8.84621 9.30256C8.90256 9.25272 8.93761 9.22171 8.96795 9.18823L8.96793 9.18821L8.97093 9.18498C9.3007 8.82901 9.38902 8.42546 9.24507 7.95201C9.09942 7.48529 8.79129 7.22029 8.32751 7.12619C7.98891 7.05824 7.68268 7.14284 7.38088 7.38519L7.37967 7.38615C6.77746 7.86593 6.35485 8.51599 5.96088 9.25149C5.29886 10.4885 5.00042 11.824 5.04793 13.2449L5.04794 13.2453C5.10383 14.978 5.65228 16.5167 6.68685 17.8675C7.66908 19.1469 8.89547 20.0439 10.3793 20.4968L10.3796 20.4969C12.912 21.2722 15.2522 20.8674 17.372 19.2076L17.3722 19.2075C18.7442 18.1347 19.6461 16.7092 20.094 14.9676L20.0945 14.9659C20.2628 14.3236 20.3359 13.6623 20.339 12.9822C20.3074 10.8173 19.5663 8.97538 18.1076 7.4439L18.3972 7.16803L18.1084 7.44473C18.077 7.412 18.0257 7.35227 17.9948 7.31628C17.9833 7.30294 17.9747 7.29286 17.9708 7.28862Z" fill="#FE724C" stroke="white" stroke-width="0.8"/>
<path d="M11.1115 10.6563C11.1144 11.4966 11.7262 12.1934 12.5224 12.2728C13.3478 12.3584 14.0855 11.8022 14.2494 10.9649C14.2728 10.8457 14.2758 10.7235 14.2758 10.6013M11.1115 10.6563C11.1056 8.39499 11.1056 7.60035 11.1115 5.33906C11.1115 4.73707 11.3837 4.26953 11.8725 3.96395C12.3819 3.64309 12.9263 3.63087 13.4474 3.93034C13.9801 4.23592 14.267 4.72179 14.2699 5.36351M11.1115 10.6563L11.5114 10.6552C11.5114 10.6552 11.5114 10.6552 11.5114 10.6552C11.5138 11.3041 11.9833 11.817 12.5621 11.8748L12.5636 11.8749C13.1758 11.9384 13.7313 11.5297 13.8569 10.8881L13.8569 10.8878C13.8722 10.8099 13.8757 10.7216 13.8758 10.6023M11.1115 10.6563L11.5114 10.6549L13.8758 10.6023M14.2699 5.36351C14.2718 6.08128 14.2713 6.50091 14.2706 7.003C14.2703 7.28754 14.2699 7.59855 14.2699 8.00531V8.00536C14.2699 9.11458 14.2699 9.49204 14.2758 10.6013M14.2699 5.36351L13.8699 5.36533C13.8699 5.36521 13.8699 5.36509 13.8699 5.36496M14.2699 5.36351L13.8699 5.36455C13.8699 5.36469 13.8699 5.36482 13.8699 5.36496M14.2758 10.6013L13.8758 10.6034C13.8758 10.603 13.8758 10.6027 13.8758 10.6023M14.2758 10.6013H13.8758C13.8758 10.6016 13.8758 10.602 13.8758 10.6023M13.8758 10.6023C13.8699 9.49287 13.8699 9.11451 13.8699 8.00531C13.8699 7.59751 13.8703 7.2862 13.8706 7.00162C13.8713 6.50022 13.8718 6.08182 13.8699 5.36496M13.8758 10.6023L11.5114 5.3401L11.5115 5.33906C11.5115 4.87802 11.71 4.53724 12.0845 4.30313L12.0857 4.3024L12.0857 4.30239C12.4704 4.06005 12.8562 4.05192 13.248 4.27714L13.2483 4.27731C13.6556 4.5109 13.8675 4.86417 13.8699 5.36496" fill="#FE724C" stroke="white" stroke-width="0.8"/>
</svg>
