<svg width="21" height="19" viewBox="0 0 21 19" fill="none" xmlns="http://www.w3.org/2000/svg">
<path fill-rule="evenodd" clip-rule="evenodd" d="M20.0799 6.02616H16.0217C14.1331 6.02948 12.6032 7.52118 12.5998 9.36254C12.5972 11.2081 14.1288 12.7064 16.0217 12.7089H20.0833V13.0021C20.0833 16.2213 18.1317 18.125 14.8291 18.125H6.1717C2.86822 18.125 0.916626 16.2213 0.916626 13.0021V5.99045C0.916626 2.77118 2.86822 0.875 6.1717 0.875H14.8257C18.1283 0.875 20.0799 2.77118 20.0799 5.99045V6.02616ZM5.45864 6.01878H10.8636H10.867H10.8739C11.2785 6.01712 11.6056 5.69569 11.6039 5.30034C11.6022 4.90582 11.2717 4.58689 10.867 4.58855H5.45864C5.05657 4.59021 4.73031 4.90832 4.7286 5.30117C4.7269 5.69569 5.05401 6.01712 5.45864 6.01878Z" fill="#9796A1"/>
<path opacity="0.4" d="M14.3693 9.78421C14.5698 10.6958 15.369 11.3371 16.2814 11.3204H19.3959C19.7755 11.3204 20.0835 11.006 20.0835 10.6174V8.19129C20.0827 7.80349 19.7755 7.48824 19.3959 7.48741H16.2081C15.1702 7.49074 14.3319 8.35225 14.3335 9.41392C14.3335 9.53819 14.3457 9.66245 14.3693 9.78421Z" fill="#9796A1"/>
<path d="M16.2501 10.3624C16.7794 10.3624 17.2084 9.93335 17.2084 9.40407C17.2084 8.8748 16.7794 8.44574 16.2501 8.44574C15.7208 8.44574 15.2917 8.8748 15.2917 9.40407C15.2917 9.93335 15.7208 10.3624 16.2501 10.3624Z" fill="#9796A1"/>
</svg>
