<svg width="19" height="21" viewBox="0 0 19 21" fill="none" xmlns="http://www.w3.org/2000/svg">
<path opacity="0.4" d="M17.6251 12.144V12.144C16.7182 11.619 16.4043 10.4867 16.9167 9.58848C17.0849 9.29846 17.3294 9.05735 17.6251 8.88997V8.88997C18.0745 8.63859 18.4028 8.22333 18.5373 7.73586C18.6719 7.2484 18.6017 6.72882 18.3423 6.29183V6.29183L17.7038 5.17591C17.4457 4.73818 17.0194 4.4185 16.5189 4.28744C16.0184 4.15639 15.485 4.22473 15.0363 4.47739V4.47739C14.5863 4.73045 14.0515 4.79902 13.5496 4.66802C13.0477 4.53702 12.6198 4.21718 12.36 3.77887C12.19 3.48804 12.0996 3.15948 12.0976 2.8248V2.8248C12.0999 2.31952 11.8955 1.83415 11.5295 1.47606C11.1635 1.11797 10.666 0.916659 10.1472 0.916664H8.86158C7.783 0.916654 6.90728 1.76578 6.90246 2.81629C6.90613 3.49761 6.53488 4.12866 5.92953 4.4701C5.32417 4.81154 4.57744 4.81107 3.97254 4.46887V4.46887C3.51973 4.20593 2.97693 4.13272 2.46781 4.26592C1.95868 4.39912 1.5266 4.72738 1.27001 5.17591V5.17591L0.657784 6.24924C0.12268 7.16002 0.443076 8.32073 1.37496 8.84737V8.84737C2.30891 9.37718 2.6259 10.5436 2.08339 11.454C1.91746 11.7435 1.67219 11.9824 1.37496 12.144V12.144C0.925539 12.3954 0.597319 12.8107 0.462762 13.2981C0.328205 13.7856 0.398376 14.3052 0.657784 14.7422V14.7422L1.27001 15.8325C1.81397 16.7422 3.01151 17.0509 3.9463 16.5225V16.5225C4.88207 16.0063 6.07001 16.3174 6.61384 17.221C6.78693 17.5107 6.8775 17.84 6.87623 18.1751V18.1751C6.8762 18.6842 7.08501 19.1721 7.45621 19.5304C7.8274 19.8888 8.33022 20.0878 8.85283 20.0833H10.1385C11.2205 20.0833 12.0976 19.229 12.0976 18.1751V18.1751C12.0906 17.6669 12.293 17.1771 12.6595 16.8153C13.026 16.4535 13.5261 16.2499 14.048 16.2499C14.3921 16.2479 14.7305 16.3361 15.0275 16.5055V16.5055C15.9627 17.0267 17.1544 16.7146 17.6951 15.807L18.3423 14.7166C18.8648 13.8122 18.5455 12.6668 17.6251 12.144Z" fill="#9796A1"/>
<path d="M9.49984 12.896C10.823 12.896 11.8957 11.8233 11.8957 10.5002C11.8957 9.17698 10.823 8.10432 9.49984 8.10432C8.17665 8.10432 7.104 9.17698 7.104 10.5002C7.104 11.8233 8.17665 12.896 9.49984 12.896Z" fill="#9796A1"/>
</svg>
