<svg width="15" height="18" viewBox="0 0 15 18" fill="none" xmlns="http://www.w3.org/2000/svg">
<path fill-rule="evenodd" clip-rule="evenodd" d="M4.1761 1.81441C6.26992 0.597806 8.84357 0.61907 10.9177 1.87011C12.9715 3.14663 14.2198 5.42484 14.2081 7.87555C14.1603 10.3102 12.8219 12.5988 11.1488 14.3679C10.1831 15.3936 9.10288 16.3006 7.9301 17.0704C7.80932 17.1402 7.67701 17.187 7.53972 17.2083C7.40758 17.2027 7.27889 17.1637 7.16526 17.0947C5.37478 15.9381 3.80399 14.4618 2.52844 12.7367C1.46111 11.2967 0.854718 9.55701 0.791627 7.75382C0.790241 5.2984 2.08228 3.03101 4.1761 1.81441ZM5.38607 8.76991C5.73828 9.63822 6.56963 10.2046 7.49195 10.2046C8.09618 10.2089 8.67701 9.96692 9.10502 9.53245C9.53303 9.09799 9.77267 8.50719 9.77052 7.8917C9.77375 6.9522 9.22064 6.10338 8.36945 5.74157C7.51827 5.37976 6.53691 5.57633 5.88359 6.2395C5.23027 6.90266 5.03386 7.90161 5.38607 8.76991Z" fill="#9796A1"/>
</svg>
