<svg width="21" height="19" viewBox="0 0 21 19" fill="none" xmlns="http://www.w3.org/2000/svg">
<path opacity="0.4" d="M20.0829 5.71725V13.2827C20.0874 14.5639 19.5817 15.7943 18.6773 16.7027C17.7729 17.611 16.544 18.1227 15.2615 18.125H5.76356C4.47886 18.1272 3.246 17.619 2.33678 16.7122C1.42755 15.8055 0.916624 14.5747 0.916626 13.2912V5.71725C0.917326 5.15363 1.01828 4.59462 1.21477 4.06629C1.90713 2.15175 3.72593 0.875736 5.76356 0.875001H15.236C17.2984 0.873849 19.1349 2.17898 19.8103 4.12586C19.9977 4.63524 20.0901 5.17461 20.0829 5.71725Z" fill="#9796A1"/>
<path d="M19.8104 4.13437L19.7167 4.21096C17.9534 5.58109 12.2461 10.168 12.2461 10.168C11.2537 10.9743 9.83118 10.9743 8.83876 10.168C8.83876 10.168 3.16554 5.5896 1.40225 4.21947L1.21484 4.0748C1.90436 2.1569 3.72381 0.877028 5.76364 0.875H15.236C17.3007 0.875101 19.1379 2.18413 19.8104 4.13437Z" fill="#9796A1"/>
</svg>
