<svg width="29" height="33" viewBox="0 0 29 33" fill="none" xmlns="http://www.w3.org/2000/svg">
<g filter="url(#filter0_d_1_979)">
<path d="M23.938 12.473C23.4249 11.8713 23.0106 11.1917 22.7109 10.4599C22.4856 9.89025 22.3719 9.28264 22.376 8.67001V8.44894C22.376 6.34419 21.5399 4.32566 20.0516 2.83737C18.5633 1.34908 16.5447 0.513031 14.4399 0.513031C12.3346 0.513031 10.3157 1.34932 8.82702 2.83798C7.33835 4.32665 6.50194 6.34573 6.50194 8.45102V8.67404C6.50609 9.28324 6.39303 9.88745 6.16893 10.4539C5.86912 11.1877 5.45424 11.8689 4.93993 12.472C4.63514 12.9809 4.43378 13.5449 4.34728 14.1317C4.26078 14.7185 4.2909 15.3166 4.4359 15.8918C4.5809 16.467 4.83789 17.0079 5.19225 17.4836C5.54661 17.9593 5.99136 18.3605 6.50097 18.664C6.50669 18.6687 6.51314 18.6724 6.52001 18.675L6.57396 18.706C6.70579 18.7751 6.84206 18.8351 6.98192 18.886C7.03592 18.907 7.09695 18.929 7.16295 18.952C7.35291 19.0226 7.54698 19.0817 7.74401 19.129C7.78201 19.137 7.81892 19.148 7.85692 19.153H7.86498L8.09203 19.207C8.25103 19.243 8.42297 19.2779 8.60997 19.3139L8.90197 19.3659C9.10197 19.3999 9.32297 19.434 9.55797 19.466C9.79297 19.498 10.044 19.529 10.313 19.557C11.6837 19.6934 13.0605 19.7601 14.438 19.7569C15.238 19.7569 15.96 19.745 16.615 19.717C17.76 19.667 18.692 19.577 19.447 19.469C19.77 19.423 20.062 19.369 20.322 19.322C21.0414 19.2322 21.7377 19.0086 22.375 18.6629C22.8846 18.3596 23.3294 17.9588 23.6838 17.4834C24.0383 17.0079 24.2955 16.4672 24.4407 15.8922C24.5858 15.3172 24.6161 14.7193 24.5299 14.1325C24.4436 13.5458 24.2425 12.9819 23.938 12.473Z" fill="#FE724C"/>
<path d="M17.541 21.44C16.552 21.0682 15.4956 20.9093 14.441 20.9739C13.3864 20.9094 12.3301 21.0683 11.341 21.44C11.1846 21.5323 11.0603 21.6704 10.985 21.8357C10.9097 22.001 10.887 22.1854 10.92 22.364C11.0857 22.8722 11.3878 23.325 11.7934 23.6732C12.1991 24.0213 12.6925 24.2513 13.22 24.338C14.0215 24.5552 14.8664 24.5552 15.668 24.338C16.1955 24.2515 16.6891 24.0215 17.0947 23.6734C17.5004 23.3252 17.8025 22.8723 17.968 22.364C18.0006 22.1848 17.977 21.9998 17.9006 21.8345C17.8242 21.6691 17.6986 21.5313 17.541 21.44V21.44Z" fill="#FE724C"/>
</g>
<defs>
<filter id="filter0_d_1_979" x="0.299072" y="0.513031" width="28.2788" height="31.9879" filterUnits="userSpaceOnUse" color-interpolation-filters="sRGB">
<feFlood flood-opacity="0" result="BackgroundImageFix"/>
<feColorMatrix in="SourceAlpha" type="matrix" values="0 0 0 0 0 0 0 0 0 0 0 0 0 0 0 0 0 0 127 0" result="hardAlpha"/>
<feOffset dy="4"/>
<feGaussianBlur stdDeviation="2"/>
<feComposite in2="hardAlpha" operator="out"/>
<feColorMatrix type="matrix" values="0 0 0 0 0 0 0 0 0 0 0 0 0 0 0 0 0 0 0.25 0"/>
<feBlend mode="normal" in2="BackgroundImageFix" result="effect1_dropShadow_1_979"/>
<feBlend mode="normal" in="SourceGraphic" in2="effect1_dropShadow_1_979" result="shape"/>
</filter>
</defs>
</svg>
