<svg width="21" height="24" viewBox="0 0 21 24" fill="none" xmlns="http://www.w3.org/2000/svg">
<path d="M18.849 4.71894C17.964 3.27256 16.7213 2.07844 15.2407 1.25189C13.7602 0.425348 12.0917 -0.00587288 10.396 -0.000180723C8.7003 -0.00625996 7.03156 0.424823 5.55093 1.25141C4.07029 2.07799 2.82774 3.27229 1.94302 4.71894C1.21716 5.94642 0.750724 7.30969 0.572534 8.72455C0.394343 10.1394 0.508169 11.5758 0.907006 12.9449C2.62401 18.8499 8.38993 22.6828 9.98293 23.6448C10.1071 23.7192 10.2492 23.7585 10.3939 23.7585C10.5387 23.7585 10.6808 23.7192 10.805 23.6448C12.399 22.6798 18.164 18.8449 19.881 12.9449C20.2806 11.576 20.3951 10.1398 20.2176 8.72492C20.04 7.31004 19.5743 5.94666 18.849 4.71894V4.71894ZM10.396 13.5479C9.49887 13.5476 8.63855 13.1911 8.00417 12.5567C7.3698 11.9223 7.01323 11.062 7.01296 10.1649C7.01323 9.26771 7.3698 8.40739 8.00417 7.77301C8.63855 7.13863 9.49887 6.78219 10.396 6.78192C11.2933 6.78192 12.1539 7.13824 12.7885 7.77265C13.4231 8.40705 13.7797 9.26754 13.7799 10.1649C13.7797 11.0622 13.4231 11.9227 12.7885 12.5571C12.1539 13.1915 11.2933 13.5479 10.396 13.5479V13.5479Z" fill="#FE724C"/>
</svg>
